<?xml version="1.0" encoding="UTF-8" standalone="no"?>
<!-- Created with Inkscape (http://www.inkscape.org/) -->

<svg
   width="64"
   height="64"
   viewBox="0 0 16.933333 16.933334"
   version="1.1"
   id="svg8"
   inkscape:version="1.4-rc1 (61ec3f2, 2024-09-26)"
   sodipodi:docname="small_icon.svg"
   xmlns:inkscape="http://www.inkscape.org/namespaces/inkscape"
   xmlns:sodipodi="http://sodipodi.sourceforge.net/DTD/sodipodi-0.dtd"
   xmlns="http://www.w3.org/2000/svg"
   xmlns:svg="http://www.w3.org/2000/svg"
   xmlns:rdf="http://www.w3.org/1999/02/22-rdf-syntax-ns#"
   xmlns:cc="http://creativecommons.org/ns#"
   xmlns:dc="http://purl.org/dc/elements/1.1/">
  <defs
     id="defs2">
    <inkscape:path-effect
       effect="offset"
       id="path-effect17"
       is_visible="true"
       lpeversion="1.3"
       linejoin_type="miter"
       unit="mm"
       offset="0.2"
       miter_limit="4"
       attempt_force_join="false"
       update_on_knot_move="true" />
    <inkscape:path-effect
       effect="offset"
       id="path-effect15"
       is_visible="true"
       lpeversion="1.3"
       linejoin_type="miter"
       unit="mm"
       offset="0.1"
       miter_limit="4"
       attempt_force_join="false"
       update_on_knot_move="true" />
  </defs>
  <sodipodi:namedview
     id="base"
     pagecolor="#ffffff"
     bordercolor="#666666"
     borderopacity="1.0"
     inkscape:pageopacity="0.0"
     inkscape:pageshadow="2"
     inkscape:zoom="7.919596"
     inkscape:cx="24.748737"
     inkscape:cy="36.807433"
     inkscape:document-units="mm"
     inkscape:current-layer="use2335"
     showgrid="true"
     units="px"
     inkscape:window-width="1920"
     inkscape:window-height="1011"
     inkscape:window-x="0"
     inkscape:window-y="33"
     inkscape:window-maximized="1"
     inkscape:showpageshadow="2"
     inkscape:pagecheckerboard="0"
     inkscape:deskcolor="#d1d1d1">
    <inkscape:grid
       type="xygrid"
       id="grid850"
       originx="0"
       originy="0"
       spacingy="1"
       spacingx="1"
       units="px" />
  </sodipodi:namedview>
  <metadata
     id="metadata5">
    <rdf:RDF>
      <cc:Work
         rdf:about="">
        <dc:format>image/svg+xml</dc:format>
        <dc:type
           rdf:resource="http://purl.org/dc/dcmitype/StillImage" />
      </cc:Work>
    </rdf:RDF>
  </metadata>
  <g
     inkscape:label="Calque 1"
     inkscape:groupmode="layer"
     id="layer1"
     transform="translate(0,-280.06663)">
    <g
       transform="matrix(-0.21500468,0,0,0.21500468,61.295653,225.25124)"
       id="g2365"
       style="stroke-width:0.334204">
      <g
         id="use2335"
         transform="matrix(1.0161355,0,0,1.0161355,-379.17394,-112.35034)"
         style="stroke-width:0.328897">
        <path
           d="m 614.42187,370.33398 c -0.23004,0.001 -0.45979,0.0219 -0.68164,0.0566 -1.33709,0.20711 -2.51813,0.99922 -3.19531,2.17774 l -0.42773,0.74219 -2.10547,-1.21485 -3.94141,6.83008 2.10352,1.21484 -2.1836,3.78125 -2.10156,-1.21289 -3.94336,6.83008 2.10156,1.21289 -2.14648,3.72266 -2.10547,-1.21484 -3.9414,6.83007 2.10546,1.21485 -2.14843,3.71875 -2.10547,-1.21485 -3.94141,6.83008 2.10547,1.21485 -2.18555,3.7832 -2.10547,-1.21485 -3.9414,6.83008 2.10547,1.21485 -1.08594,1.88281 c -0.78532,1.3677 -0.80041,3.07177 0,4.45312 0.79768,1.37667 2.28215,2.2415 3.88672,2.24024 h 3.87109 v -3.0293 h 4.22266 v 3.0293 h 8.0332 v -3.0293 h 4.22266 v 3.0293 h 7.95703 v -3.0293 h 4.22461 v 3.0293 h 7.95703 v -3.0293 h 4.22461 v 3.0293 h 8.03125 v -3.0293 h 4.22266 v 3.0293 h 2.80859 c 1.60502,0.001 3.08884,-0.8633 3.88672,-2.24024 0.80061,-1.38166 0.78625,-3.08574 0,-4.45507 l -29.88867,-51.77735 c -0.81029,-1.41111 -2.30656,-2.24261 -3.89454,-2.23633 z"
           style="fill:#000000;fill-rule:evenodd;stroke-width:0.714975;stroke-linecap:round;stroke-linejoin:bevel;fill-opacity:1"
           id="path16"
           inkscape:path-effect="#path-effect17"
           inkscape:original-d="m 614.42515,371.25066 c 1.26273,-0.005 2.45579,0.65456 3.0986,1.77401 l 29.88839,51.77958 c 0.62476,1.08809 0.63516,2.44241 0,3.53855 -0.63516,1.09613 -1.81624,1.7843 -3.09386,1.78346 h -1.89227 v -3.02763 h -6.05526 v 3.02763 h -6.19955 v -3.02763 h -6.05526 v 3.02763 h -6.12622 v -3.02763 h -6.05526 v 3.02763 h -6.12623 v -3.02763 h -6.05526 v 3.02763 h -6.19955 v -3.02763 h -6.05526 v 3.02763 h -2.9543 c -1.27752,10e-4 -2.45897,-0.68773 -3.09387,-1.78346 -0.63491,-1.09573 -0.62477,-2.45046 0,-3.53855 l 1.5422,-2.67283 -2.10515,-1.21578 3.02764,-5.24395 2.10515,1.21578 3.09859,-5.36931 -2.10515,-1.21579 3.02763,-5.24395 2.10515,1.21579 3.06311,-5.30545 -2.10515,-1.21579 3.02763,-5.24395 2.10515,1.21578 3.06075,-5.30781 -2.10279,-1.21342 3.02763,-5.24395 2.10279,1.21342 3.09859,-5.36932 -2.10279,-1.21342 3.02763,-5.24395 2.10279,1.21342 0.887,-1.5351 c 0.53659,-0.93384 1.47494,-1.56367 2.54274,-1.72906 0.18175,-0.0285 0.36364,-0.0442 0.54402,-0.045 z" />
        <path
           d="m 614.42383,370.79297 c -0.20524,9.1e-4 -0.41147,0.0172 -0.61328,0.0488 -1.20239,0.18623 -2.26229,0.89896 -2.86914,1.95507 l -0.65821,1.13868 -2.10351,-1.21485 -3.48438,6.03711 2.10352,1.21485 -2.64258,4.57617 -2.10156,-1.21485 -3.48438,6.03711 2.10156,1.21289 -2.60351,4.51563 -2.10547,-1.21484 -3.48437,6.0371 2.10546,1.21485 -2.60546,4.51172 -2.10547,-1.21485 -3.48438,6.03711 2.10547,1.21485 -2.64258,4.57617 -2.10547,-1.21485 -3.48437,6.03711 2.10547,1.21485 -1.31446,2.27734 c -0.70508,1.22797 -0.7177,2.75749 0,3.9961 0.71634,1.23626 2.04911,2.01284 3.49024,2.01171 h 3.41211 v -3.02929 h 5.14062 v 3.02929 h 7.11524 v -3.02929 h 5.14062 v 3.02929 h 7.03906 v -3.02929 h 5.14258 v 3.02929 h 7.03907 v -3.02929 h 5.14257 v 3.02929 h 7.11328 v -3.02929 h 5.14063 v 3.02929 h 2.34961 c 1.4414,9.5e-4 2.77368,-0.77511 3.49023,-2.01171 0.71793,-1.23898 0.70555,-2.76732 0,-3.9961 l -29.88867,-51.7793 c -0.72647,-1.26513 -2.0709,-2.00954 -3.49609,-2.0039 z"
           style="fill:#fff000;fill-rule:evenodd;stroke-width:0.714975;stroke-linecap:round;stroke-linejoin:bevel"
           id="path15"
           inkscape:path-effect="#path-effect15"
           inkscape:original-d="m 614.42515,371.25066 c 1.26273,-0.005 2.45579,0.65456 3.0986,1.77401 l 29.88839,51.77958 c 0.62476,1.08809 0.63516,2.44241 0,3.53855 -0.63516,1.09613 -1.81624,1.7843 -3.09386,1.78346 h -1.89227 v -3.02763 h -6.05526 v 3.02763 h -6.19955 v -3.02763 h -6.05526 v 3.02763 h -6.12622 v -3.02763 h -6.05526 v 3.02763 h -6.12623 v -3.02763 h -6.05526 v 3.02763 h -6.19955 v -3.02763 h -6.05526 v 3.02763 h -2.9543 c -1.27752,10e-4 -2.45897,-0.68773 -3.09387,-1.78346 -0.63491,-1.09573 -0.62477,-2.45046 0,-3.53855 l 1.5422,-2.67283 -2.10515,-1.21578 3.02764,-5.24395 2.10515,1.21578 3.09859,-5.36931 -2.10515,-1.21579 3.02763,-5.24395 2.10515,1.21579 3.06311,-5.30545 -2.10515,-1.21579 3.02763,-5.24395 2.10515,1.21578 3.06075,-5.30781 -2.10279,-1.21342 3.02763,-5.24395 2.10279,1.21342 3.09859,-5.36932 -2.10279,-1.21342 3.02763,-5.24395 2.10279,1.21342 0.887,-1.5351 c 0.53659,-0.93384 1.47494,-1.56367 2.54274,-1.72906 0.18175,-0.0285 0.36364,-0.0442 0.54402,-0.045 z" />
        <path
           d="m 614.1875,376.09375 c -0.50887,0.0788 -0.94216,0.38556 -1.1875,0.8125 l -26.5,45.90625 c -0.29022,0.50547 -0.2911,1.15388 0,1.65625 0.29591,0.51068 0.84227,0.8442 1.4375,0.84375 h 53 c 0.59521,4.5e-4 1.14158,-0.33306 1.4375,-0.84375 0.29108,-0.50236 0.29023,-1.15078 0,-1.65625 l -26.5,-45.90625 c -0.3402,-0.59244 -0.99812,-0.9205 -1.6875,-0.8125 z m 0.25,5.28125 22.5,39.625 h -45.03125 z"
           id="path2892"
           style="stroke-width:0.328897" />
      </g>
      <g
         transform="matrix(0.41428,0,0,0.41428,312.93,216.11)"
         id="g2363"
         style="stroke-width:0.334204">
        <path
           d="m -121.63,207.27 h -63.423"
           fill="none"
           stroke="#000000"
           stroke-width="0.668408"
           id="path2337" />
        <path
           d="m -161.3,180.77 v 52.304"
           fill="none"
           stroke="#000000"
           stroke-width="0.501305"
           id="path2339" />
        <path
           d="m -147.99,229.64 -25.89,-44.843"
           fill="none"
           stroke="#000000"
           stroke-width="0.501305"
           id="path2341" />
        <path
           d="m -148.54,184.34 -25.657,44.439"
           fill="none"
           stroke="#000000"
           stroke-width="0.501305"
           id="path2343" />
        <path
           d="m -182.72,194.5 44.198,25.518"
           fill="none"
           stroke="#000000"
           stroke-width="0.501305"
           id="path2345" />
        <path
           d="m -139.48,193.95 -43.58,25.161"
           fill="none"
           stroke="#000000"
           stroke-width="0.501305"
           id="path2347" />
        <path
           d="m -165.56,190.66 8.8094,32.877"
           fill="none"
           stroke="#000000"
           id="path2349"
           style="stroke-width:0.334204" />
        <path
           d="m -156.64,190.11 -9.1685,34.217"
           fill="none"
           stroke="#000000"
           id="path2351"
           style="stroke-width:0.334204" />
        <path
           d="m -172.97,195.05 23.955,23.955"
           fill="none"
           stroke="#000000"
           id="path2353"
           style="stroke-width:0.334204" />
        <path
           d="m -149.36,195.19 -23.543,23.543"
           fill="none"
           stroke="#000000"
           id="path2355"
           style="stroke-width:0.334204" />
        <path
           d="m -177.09,202.46 31.493,8.4386"
           fill="none"
           stroke="#000000"
           id="path2357"
           style="stroke-width:0.334204" />
        <path
           d="m -145.24,202.33 -31.468,8.4319"
           fill="none"
           stroke="#000000"
           id="path2359"
           style="stroke-width:0.334204" />
        <path
           transform="translate(-1.359,-0.48536)"
           d="m -150.65,207.99 a 9.2705,9.2705 0 1 1 -18.541,0 9.2705,9.2705 0 1 1 18.541,0 z"
           id="path2361"
           style="stroke-width:0.334204" />
      </g>
      <g
         id="g13" />
      <g
         id="g14"
         style="fill:#fff000;fill-opacity:1" />
    </g>
  </g>
</svg>
