<?xml version="1.0" encoding="UTF-8" standalone="no"?>
<svg
   viewBox="0 0 16 16"
   version="1.1"
   id="svg2719"
   sodipodi:docname="icon.svg"
   width="16"
   height="16"
   inkscape:version="1.1 (c4e8f9e, 2021-05-24)"
   xmlns:inkscape="http://www.inkscape.org/namespaces/inkscape"
   xmlns:sodipodi="http://sodipodi.sourceforge.net/DTD/sodipodi-0.dtd"
   xmlns="http://www.w3.org/2000/svg"
   xmlns:svg="http://www.w3.org/2000/svg">
  <defs
     id="defs2723" />
  <sodipodi:namedview
     id="namedview2721"
     pagecolor="#505050"
     bordercolor="#eeeeee"
     borderopacity="1"
     inkscape:pageshadow="0"
     inkscape:pageopacity="0"
     inkscape:pagecheckerboard="0"
     showgrid="false"
     fit-margin-top="0"
     fit-margin-left="0"
     fit-margin-right="0"
     fit-margin-bottom="0"
     inkscape:zoom="19.944452"
     inkscape:cx="11.958213"
     inkscape:cy="9.3509715"
     inkscape:window-width="1600"
     inkscape:window-height="843"
     inkscape:window-x="0"
     inkscape:window-y="33"
     inkscape:window-maximized="1"
     inkscape:current-layer="svg2719" />
  <g
     transform="matrix(-0.27157929,0,0,0.27157929,74.809927,-71.893976)"
     id="g2365">
    <g
       id="use2335"
       transform="translate(-368.72,-106.36)">
      <path
         transform="matrix(0.73873,0,0,0.73873,168.61,57.13)"
         d="m 602.84,430.03 c -1.2728,0.19714 -2.3916,0.94937 -3.0312,2.0625 l -35.625,61.719 c -0.74472,1.297 -0.7568,2.9127 0,4.2188 0.7568,1.3061 2.1647,2.1262 3.6875,2.125 h 71.25 c 1.5229,10e-4 2.9304,-0.81842 3.6875,-2.125 0.7571,-1.30658 0.74471,-2.9218 0,-4.2188 l -35.625,-61.719 c -0.87568,-1.525 -2.6106,-2.334 -4.3438,-2.0625 z"
         fill="#fff000"
         id="path2890" />
      <path
         d="m 614.1875,376.09375 c -0.50887,0.0788 -0.94216,0.38556 -1.1875,0.8125 l -26.5,45.90625 c -0.29022,0.50547 -0.2911,1.15388 0,1.65625 0.29591,0.51068 0.84227,0.8442 1.4375,0.84375 h 53 c 0.59521,4.5e-4 1.14158,-0.33306 1.4375,-0.84375 0.29108,-0.50236 0.29023,-1.15078 0,-1.65625 l -26.5,-45.90625 c -0.3402,-0.59244 -0.99812,-0.9205 -1.6875,-0.8125 z m 0.25,5.28125 22.5,39.625 h -45.03125 z"
         id="path2892" />
    </g>
    <g
       transform="matrix(0.41428,0,0,0.41428,312.93,216.11)"
       id="g2363">
      <path
         d="m -121.63,207.27 h -63.423"
         fill="none"
         stroke="#000000"
         stroke-width="2"
         id="path2337" />
      <path
         d="m -161.3,180.77 v 52.304"
         fill="none"
         stroke="#000000"
         stroke-width="1.5"
         id="path2339" />
      <path
         d="m -147.99,229.64 -25.89,-44.843"
         fill="none"
         stroke="#000000"
         stroke-width="1.5"
         id="path2341" />
      <path
         d="m -148.54,184.34 -25.657,44.439"
         fill="none"
         stroke="#000000"
         stroke-width="1.5"
         id="path2343" />
      <path
         d="m -182.72,194.5 44.198,25.518"
         fill="none"
         stroke="#000000"
         stroke-width="1.5"
         id="path2345" />
      <path
         d="m -139.48,193.95 -43.58,25.161"
         fill="none"
         stroke="#000000"
         stroke-width="1.5"
         id="path2347" />
      <path
         d="m -165.56,190.66 8.8094,32.877"
         fill="none"
         stroke="#000000"
         id="path2349" />
      <path
         d="m -156.64,190.11 -9.1685,34.217"
         fill="none"
         stroke="#000000"
         id="path2351" />
      <path
         d="m -172.97,195.05 23.955,23.955"
         fill="none"
         stroke="#000000"
         id="path2353" />
      <path
         d="m -149.36,195.19 -23.543,23.543"
         fill="none"
         stroke="#000000"
         id="path2355" />
      <path
         d="m -177.09,202.46 31.493,8.4386"
         fill="none"
         stroke="#000000"
         id="path2357" />
      <path
         d="m -145.24,202.33 -31.468,8.4319"
         fill="none"
         stroke="#000000"
         id="path2359" />
      <path
         transform="translate(-1.359,-0.48536)"
         d="m -150.65,207.99 a 9.2705,9.2705 0 1 1 -18.541,0 9.2705,9.2705 0 1 1 18.541,0 z"
         id="path2361" />
    </g>
  </g>
</svg>
